{
  "accessors": [
    {
      "name": "dragonjan-Mesh_0_positions",
      "componentType": 5126,
      "count": 700,
      "min": [
        -12.059660911560059,
        -5.438982009887695,
        -9.8642578125
      ],
      "max": [
        -6.963354110717773,
        -3.9831790924072266,
        -4.795185089111328
      ],
      "type": "VEC3",
      "bufferView": 0,
      "byteOffset": 0
    },
    {
      "name": "dragonjan-Mesh_0_normals",
      "componentType": 5126,
      "count": 700,
      "min": [
        -0.40091538429260254,
        -0.999602735042572,
        -0.3890005052089691
      ],
      "max": [
        0.43038877844810486,
        0.9989009499549866,
        0.4189817011356354
      ],
      "type": "VEC3",
      "bufferView": 1,
      "byteOffset": 0
    },
    {
      "name": "dragonjan-Mesh_0_indices",
      "componentType": 5123,
      "count": 726,
      "min": [
        0
      ],
      "max": [
        699
      ],
      "type": "SCALAR",
      "bufferView": 3,
      "byteOffset": 0
    },
    {
      "name": "Box001.001-Mesh_0_positions",
      "componentType": 5126,
      "count": 408,
      "min": [
        0.02111000008881092,
        -0.6229869723320007,
        -0.7398390173912048
      ],
      "max": [
        0.7591090202331543,
        2.163012981414795,
        -0.5878379940986633
      ],
      "type": "VEC3",
      "bufferView": 0,
      "byteOffset": 8400
    },
    {
      "name": "Box001.001-Mesh_0_normals",
      "componentType": 5126,
      "count": 408,
      "min": [
        -1,
        -0.9741913080215454,
        -0.9999501705169678
      ],
      "max": [
        1,
        0.9811002612113953,
        0.9999501705169678
      ],
      "type": "VEC3",
      "bufferView": 1,
      "byteOffset": 8400
    },
    {
      "name": "Box001.001-Mesh_0_texcoords",
      "componentType": 5126,
      "count": 408,
      "min": [
        -1024,
        -1023
      ],
      "max": [
        1424,
        1
      ],
      "type": "VEC2",
      "bufferView": 2,
      "byteOffset": 0
    },
    {
      "name": "Box001.001-Mesh_0_indices",
      "componentType": 5123,
      "count": 408,
      "min": [
        0
      ],
      "max": [
        407
      ],
      "type": "SCALAR",
      "bufferView": 3,
      "byteOffset": 1452
    },
    {
      "name": "Box001-Mesh_0_positions",
      "componentType": 5126,
      "count": 408,
      "min": [
        -0.32444998621940613,
        -0.5256639719009399,
        -0.7045440077781677
      ],
      "max": [
        -0.10039199888706207,
        1.768712043762207,
        0.9046990275382996
      ],
      "type": "VEC3",
      "bufferView": 0,
      "byteOffset": 13296
    },
    {
      "name": "Box001-Mesh_0_normals",
      "componentType": 5126,
      "count": 408,
      "min": [
        -0.9982585906982422,
        -0.8400838375091553,
        -0.9652867317199707
      ],
      "max": [
        0.9980071187019348,
        0.9799717664718628,
        0.9495263695716858
      ],
      "type": "VEC3",
      "bufferView": 1,
      "byteOffset": 13296
    },
    {
      "name": "Box001-Mesh_0_texcoords",
      "componentType": 5126,
      "count": 408,
      "min": [
        -1024,
        -1023
      ],
      "max": [
        1424,
        1
      ],
      "type": "VEC2",
      "bufferView": 2,
      "byteOffset": 3264
    },
    {
      "name": "Box001-Mesh_0_indices",
      "componentType": 5123,
      "count": 408,
      "min": [
        0
      ],
      "max": [
        407
      ],
      "type": "SCALAR",
      "bufferView": 3,
      "byteOffset": 2268
    }
  ],
  "asset": {
    "generator": "obj2gltf",
    "version": "2.0"
  },
  "buffers": [
    {
      "name": "land",
      "byteLength": 45996,
      "uri": "data:application/octet-stream;base64,"
    }
  ],
  "bufferViews": [
    {
      "name": "bufferView_0",
      "buffer": 0,
      "byteLength": 18192,
      "byteOffset": 0,
      "byteStride": 12,
      "target": 34962
    },
    {
      "name": "bufferView_1",
      "buffer": 0,
      "byteLength": 18192,
      "byteOffset": 18192,
      "byteStride": 12,
      "target": 34962
    },
    {
      "name": "bufferView_2",
      "buffer": 0,
      "byteLength": 6528,
      "byteOffset": 36384,
      "byteStride": 8,
      "target": 34962
    },
    {
      "name": "bufferView_3",
      "buffer": 0,
      "byteLength": 3084,
      "byteOffset": 42912,
      "target": 34963
    }
  ],
  "materials": [
    {
      "name": "None",
      "pbrMetallicRoughness": {
        "baseColorFactor": [
          0.8,
          0.8,
          0.8,
          1
        ],
        "metallicFactor": 0,
        "roughnessFactor": 1
      },
      "emissiveFactor": [
        0,
        0,
        0
      ],
      "alphaMode": "OPAQUE",
      "doubleSided": false
    },
    {
      "name": "01_-_Default",
      "pbrMetallicRoughness": {
        "baseColorFactor": [
          0.470588,
          0.470588,
          0.470588,
          1
        ],
        "metallicFactor": 0,
        "roughnessFactor": 0.905882353
      },
      "emissiveFactor": [
        0,
        0,
        0
      ],
      "alphaMode": "OPAQUE",
      "doubleSided": false
    },
    {
      "name": "01_-_Default_NONE",
      "pbrMetallicRoughness": {
        "baseColorFactor": [
          0.470588,
          0.470588,
          0.470588,
          1
        ],
        "metallicFactor": 0,
        "roughnessFactor": 0.903921569
      },
      "emissiveFactor": [
        0,
        0,
        0
      ],
      "alphaMode": "OPAQUE",
      "doubleSided": false
    }
  ],
  "meshes": [
    {
      "name": "dragonjan-Mesh",
      "primitives": [
        {
          "attributes": {
            "POSITION": 0,
            "NORMAL": 1
          },
          "indices": 2,
          "material": 0,
          "mode": 4
        }
      ]
    },
    {
      "name": "Box001.001-Mesh",
      "primitives": [
        {
          "attributes": {
            "POSITION": 3,
            "NORMAL": 4,
            "TEXCOORD_0": 5
          },
          "indices": 6,
          "material": 1,
          "mode": 4
        }
      ]
    },
    {
      "name": "Box001-Mesh",
      "primitives": [
        {
          "attributes": {
            "POSITION": 7,
            "NORMAL": 8,
            "TEXCOORD_0": 9
          },
          "indices": 10,
          "material": 2,
          "mode": 4
        }
      ]
    }
  ],
  "nodes": [
    {
      "name": "dragonjan",
      "mesh": 0
    },
    {
      "name": "Box001.001",
      "mesh": 1
    },
    {
      "name": "Box001",
      "mesh": 2
    }
  ],
  "scene": 0,
  "scenes": [
    {
      "nodes": [
        0,
        1,
        2
      ]
    }
  ]
}
